<svg id="visual" viewBox="0 0 1366 768" width="1366" height="768" xmlns="http://www.w3.org/2000/svg" xmlns:xlink="http://www.w3.org/1999/xlink" version="1.1"><rect x="0" y="0" width="1366" height="768" fill="#b5d7d8"></rect><defs><linearGradient id="grad1_0" x1="43.8%" y1="0%" x2="100%" y2="100%"><stop offset="14.427083333333334%" stop-color="#69aeb1" stop-opacity="1"></stop><stop offset="85.57291666666667%" stop-color="#69aeb1" stop-opacity="1"></stop></linearGradient></defs><defs><linearGradient id="grad1_1" x1="43.8%" y1="0%" x2="100%" y2="100%"><stop offset="14.427083333333334%" stop-color="#69aeb1" stop-opacity="1"></stop><stop offset="85.57291666666667%" stop-color="#7db8bb" stop-opacity="1"></stop></linearGradient></defs><defs><linearGradient id="grad1_2" x1="43.8%" y1="0%" x2="100%" y2="100%"><stop offset="14.427083333333334%" stop-color="#90c2c4" stop-opacity="1"></stop><stop offset="85.57291666666667%" stop-color="#7db8bb" stop-opacity="1"></stop></linearGradient></defs><defs><linearGradient id="grad1_3" x1="43.8%" y1="0%" x2="100%" y2="100%"><stop offset="14.427083333333334%" stop-color="#90c2c4" stop-opacity="1"></stop><stop offset="85.57291666666667%" stop-color="#a3cdce" stop-opacity="1"></stop></linearGradient></defs><defs><linearGradient id="grad1_4" x1="43.8%" y1="0%" x2="100%" y2="100%"><stop offset="14.427083333333334%" stop-color="#b5d7d8" stop-opacity="1"></stop><stop offset="85.57291666666667%" stop-color="#a3cdce" stop-opacity="1"></stop></linearGradient></defs><defs><linearGradient id="grad2_0" x1="0%" y1="0%" x2="56.2%" y2="100%"><stop offset="14.427083333333334%" stop-color="#69aeb1" stop-opacity="1"></stop><stop offset="85.57291666666667%" stop-color="#69aeb1" stop-opacity="1"></stop></linearGradient></defs><defs><linearGradient id="grad2_1" x1="0%" y1="0%" x2="56.2%" y2="100%"><stop offset="14.427083333333334%" stop-color="#7db8bb" stop-opacity="1"></stop><stop offset="85.57291666666667%" stop-color="#69aeb1" stop-opacity="1"></stop></linearGradient></defs><defs><linearGradient id="grad2_2" x1="0%" y1="0%" x2="56.2%" y2="100%"><stop offset="14.427083333333334%" stop-color="#7db8bb" stop-opacity="1"></stop><stop offset="85.57291666666667%" stop-color="#90c2c4" stop-opacity="1"></stop></linearGradient></defs><defs><linearGradient id="grad2_3" x1="0%" y1="0%" x2="56.2%" y2="100%"><stop offset="14.427083333333334%" stop-color="#a3cdce" stop-opacity="1"></stop><stop offset="85.57291666666667%" stop-color="#90c2c4" stop-opacity="1"></stop></linearGradient></defs><defs><linearGradient id="grad2_4" x1="0%" y1="0%" x2="56.2%" y2="100%"><stop offset="14.427083333333334%" stop-color="#a3cdce" stop-opacity="1"></stop><stop offset="85.57291666666667%" stop-color="#b5d7d8" stop-opacity="1"></stop></linearGradient></defs><g transform="translate(1366, 0)"><path d="M0 652.8C-93.7 651.3 -187.5 649.8 -249.8 603.1C-312.1 556.4 -343 464.6 -403.1 403.1C-463.1 341.5 -552.2 310.1 -598.7 248C-645.2 185.8 -649 92.9 -652.8 0L0 0Z" fill="#acd2d3"></path><path d="M0 522.2C-75 521 -150 519.8 -199.9 482.5C-249.7 445.2 -274.4 371.7 -322.4 322.4C-370.5 273.2 -441.8 248.1 -478.9 198.4C-516.1 148.7 -519.2 74.3 -522.2 0L0 0Z" fill="#99c8c9"></path><path d="M0 391.7C-56.2 390.8 -112.5 389.9 -149.9 361.9C-187.3 333.9 -205.8 278.8 -241.8 241.8C-277.8 204.9 -331.3 186.1 -359.2 148.8C-387.1 111.5 -389.4 55.8 -391.7 0L0 0Z" fill="#86bdbf"></path><path d="M0 261.1C-37.5 260.5 -75 259.9 -99.9 241.2C-124.9 222.6 -137.2 185.9 -161.2 161.2C-185.2 136.6 -220.9 124 -239.5 99.2C-258.1 74.3 -259.6 37.2 -261.1 0L0 0Z" fill="#73b3b6"></path><path d="M0 130.6C-18.7 130.3 -37.5 130 -50 120.6C-62.4 111.3 -68.6 92.9 -80.6 80.6C-92.6 68.3 -110.4 62 -119.7 49.6C-129 37.2 -129.8 18.6 -130.6 0L0 0Z" fill="#69aeb1"></path></g><g transform="translate(0, 768)"><path d="M0 -652.8C79.5 -622.8 158.9 -592.7 231.1 -558C303.4 -523.3 368.4 -484 434.2 -434.2C500 -384.3 566.5 -323.9 603.1 -249.8C639.7 -175.7 646.2 -87.9 652.8 0L0 0Z" fill="#acd2d3"></path><path d="M0 -522.2C63.6 -498.2 127.1 -474.2 184.9 -446.4C242.7 -418.7 294.7 -387.2 347.3 -347.3C400 -307.4 453.2 -259.1 482.5 -199.9C511.7 -140.6 517 -70.3 522.2 0L0 0Z" fill="#99c8c9"></path><path d="M0 -391.7C47.7 -373.7 95.3 -355.6 138.7 -334.8C182 -314 221 -290.4 260.5 -260.5C300 -230.6 339.9 -194.4 361.9 -149.9C383.8 -105.4 387.7 -52.7 391.7 0L0 0Z" fill="#86bdbf"></path><path d="M0 -261.1C31.8 -249.1 63.6 -237.1 92.5 -223.2C121.3 -209.3 147.3 -193.6 173.7 -173.7C200 -153.7 226.6 -129.6 241.2 -99.9C255.9 -70.3 258.5 -35.1 261.1 0L0 0Z" fill="#73b3b6"></path><path d="M0 -130.6C15.9 -124.6 31.8 -118.5 46.2 -111.6C60.7 -104.7 73.7 -96.8 86.8 -86.8C100 -76.9 113.3 -64.8 120.6 -50C127.9 -35.1 129.2 -17.6 130.6 0L0 0Z" fill="#69aeb1"></path></g></svg>